<svg id="Capa_1" data-name="Capa 1" xmlns="http://www.w3.org/2000/svg" viewBox="0 0 461.99 432.81"><defs><style>.cls-1{fill:#ff4500;}.cls-1,.cls-2{stroke:#ff4500;stroke-miterlimit:10;}.cls-2{fill:#fff;}</style></defs><path class="cls-1" d="M237.41,186.7" transform="translate(-38.73 -39.65)"/><path class="cls-1" d="M268.86,197H49.66c-3.74,0-10.36,2-10.43-2.91,0-6.19,6.8-3.61,10.63-3.61q219.66-.21,439.35,0c4,0,11.07-2,11,3.61-.11,5.17-7.23,3.05-11.16,3.05Q378.93,197.11,268.86,197Z" transform="translate(-38.73 -39.65)"/><path class="cls-1" d="M271.76,471.91C186,468.08,121.62,429.44,80.07,353.66a37,37,0,0,1-2-4.27c-1-2.43-3.92-6-1.54-7.31,4.07-2.33,5.91,2,7.35,5.09C95,371.26,111,391.72,130.25,409.72a201.11,201.11,0,0,0,119.81,54.43c65.73,6.64,122.19-13.93,169.61-59.41a187.84,187.84,0,0,0,39.38-53.88c1.25-2.55,2.48-5.11,4-7.52a3.84,3.84,0,0,1,5-1.58c2.58,1.3.58,3.28-.09,4.74a210.19,210.19,0,0,1-34.71,52.62c-34.47,38.48-77.53,61.56-128.31,70.12A157.81,157.81,0,0,1,271.76,471.91Z" transform="translate(-38.73 -39.65)"/><path class="cls-1" d="M272.22,40.18C360,44,425.07,84,466.13,162.23c1.25,2.4,5.42,5.82,1.81,7.91-4,2.29-5.58-2.54-7.08-5.56C444.08,131,420.79,103,389.42,82c-40.08-26.8-84.5-39.73-132.37-35.29-78.55,7.42-136.59,47-173,117.37a26.07,26.07,0,0,0-1.28,2.53c-1,2.62-2.8,5-5.54,3.78-3.5-1.54-.67-4.32.18-6.11a212.84,212.84,0,0,1,54.51-71.58A215.14,215.14,0,0,1,239.23,43,160.05,160.05,0,0,1,272.22,40.18Z" transform="translate(-38.73 -39.65)"/><path class="cls-1" d="M269.38,320.63q-110.56,0-221.13-.09c-3.1,0-8.68,1.8-8.93-2-.37-5.41,5.41-3.61,8.75-3.61q221.63-.12,443.21,0H496c2,0,4.07.65,4.19,2.89.17,2.57-2.13,2.69-4,2.76h-7.57Z" transform="translate(-38.73 -39.65)"/><path class="cls-1" d="M468.21,248.71c0-9.41.25-18.84-.11-28.24-.2-5.55,2.69-5.94,7-6s6.25,1,6.22,5.76c-.2,22.95,0,45.92-.11,68.87,0,2.73.67,6-3.74,6.14-3.61.14-6.57-.16-8-4.62-3-9.57-6.59-19-9.95-28.43a8,8,0,0,0-2.94-4.15c0,10-.22,20.1.09,30.14.14,5.07-1.12,7.22-6.74,7.22s-6.72-2.31-6.68-7.33c.22-22,0-44,.16-66,0-3-1.66-7.23,4.19-7.57,4.7-.25,7.5.92,9,5.85,3,9.54,6.59,18.85,9.93,28.26Z" transform="translate(-38.73 -39.65)"/><path class="cls-1" d="M268.08,449.25C194.71,446,137,410.79,99.41,342.84c-1.81-3.13-6.47-8.34-2.58-10.37,4.89-2.56,5.41,4.52,7.22,7.7,31.42,57.78,79.23,92.38,144.69,101.5C327.07,452.5,406.81,410,442.08,336.79a25.21,25.21,0,0,1,1.8-3.36,3.61,3.61,0,0,1,4.95-1.25h0c2,1.15.25,2.85-.31,4a193.8,193.8,0,0,1-34.94,51.23C375,427.6,327.69,447.73,268.08,449.25Z" transform="translate(-38.73 -39.65)"/><path class="cls-1" d="M303.45,254.61c0-11.34.26-22.68-.1-34-.17-5.42,2.33-6.19,6.8-6.12s7.39.38,7.1,6c-.33,6.59,0,13.22,0,19.86,0,3.43.45,6.27,5,6.18s3.81-3.27,3.85-6c0-6.92.23-13.85,0-20.77-.22-5.41,3.1-5.21,6.75-5.14s7-.49,7,4.93q-.17,35.43,0,70.84c0,5.41-3.62,4.89-7.05,5s-6.88,0-6.71-5.24c.27-8.5.1-17,0-25.49,0-2.68.81-6-3.62-6.18s-5.25,2.4-5.21,6c0,7.87-.33,15.77.1,23.6.35,6.05-2.16,7.35-7.71,7.42-6.28.09-6.21-3.36-6.15-7.78C303.45,276.64,303.45,265.63,303.45,254.61Z" transform="translate(-38.73 -39.65)"/><path class="cls-1" d="M267.34,254.72v22.64c0,2.62.52,5.24,3.92,5.42a4.35,4.35,0,0,0,4.63-4,3.94,3.94,0,0,0,0-.84c-.32-5.89,4.88-12.88-3.61-17.39-2.82-1.52-1.64-5.18-1.17-7.87.54-3.11,3.36-2.17,5.42-2.3,2.5-.14,5,0,7.54,0,3.16-.11,4.59,1.25,4.57,4.44v35.88c0,4.46-2.8,6.11-5.92,3.62-2.67-2.21-3.61-2.24-6.65-.53-8,4.61-16.41,1.54-20.38-6.81a20.74,20.74,0,0,1-1.81-6.26,188.35,188.35,0,0,1,0-51.63c1.81-11.39,8.52-15.72,20.21-14.7,9.35.84,13.74,6.18,14.44,17.57.13,2.21,0,4.43.22,6.61.4,4.46-1.48,6.16-6,6.09s-7.56-.54-7.22-6a63.09,63.09,0,0,0-.25-7.53c-.17-2.4-1.16-4.44-3.89-4.37s-3.81,2.11-3.84,4.5c-.11,7.85,0,15.73,0,23.58Z" transform="translate(-38.73 -39.65)"/><path class="cls-1" d="M273,60.48c78.24,3.05,136.09,38.88,173.16,108.11.74,1.39,1.5,2.78,2.12,4.22.47,1.07,1.37,2.33,0,3.34a2.81,2.81,0,0,1-4.16-.54,74.33,74.33,0,0,1-4.17-7.38C409.85,112.07,363.3,77.67,300.67,67.67,221,55,141.57,95.26,104.14,168.37c-1.64,3.2-2.35,10.31-7.22,7.77-4.16-2.19,1-7.23,2.65-10.22,31.19-57.15,78.37-92.1,143-102.93C252.7,61.11,262.7,61,273,60.48Z" transform="translate(-38.73 -39.65)"/><path class="cls-1" d="M141,249.86c0,8.83.2,17.66,0,26.47-.38,13.37-6.12,19.42-17.88,19.45-11.37,0-17.76-6.5-18.05-19.52-.4-13.85-.15-27.73-.17-41.53,0-4.1.24-8.2,0-12.28-.36-5.13.38-8.09,6.9-8s7,3,7,8.1q-.31,24.6,0,49.17c0,4.12-1,11,4,11.18,6.79.2,4.58-7,4.66-11.23q.38-25,0-50.11c-.09-5.27,1.49-7.09,6.89-7.06s7.23,1.81,7,7.1c-.34,9.44-.09,18.9-.09,28.37Z" transform="translate(-38.73 -39.65)"/><path class="cls-1" d="M392.4,284.7c2.84-19.87,6.2-42.42,9.23-65.1.56-4.21,2.53-4.89,6.18-5.09,11.53-.6,11.73-.76,13.57,10.49,3.47,21.32,6.69,42.7,10,64.06.43,2.79,1.52,6.32-3,6.05-3.46-.19-8.7,2.82-9.76-3.84-.24-1.55-.58-3.09-.76-4.64-.49-3.9-1.7-9.21-6.37-9.1s-5.84,5.79-5.95,9.69.31,7.62-5.41,8.13C392.89,296,391.52,295,392.4,284.7Z" transform="translate(-38.73 -39.65)"/><path class="cls-1" d="M70.64,254.86v22.68c0,2.21.19,4.81,3.07,5,3.31.28,4.19-2.33,4.36-5a69.17,69.17,0,0,0,.14-10.38C77.74,262,79.49,260,85,260s7.37,1.9,6.9,7.23c-.4,4.39,0,8.85-.49,13.2-1.17,9.48-7.22,15-16.25,15.36s-15.33-4.38-17.91-13.5c-2.1-7.42-1.59-15-1.45-22.54.2-10.65-1.21-21.41,1.43-32,2.47-10,8.05-14,18.49-13.52,8.77.45,14.14,5.42,15.53,14.79.5,3.39.12,6.93.43,10.36.49,5.29-.74,8.07-7.06,7.95-5.83-.11-6.84-2.69-6.48-7.5a61.86,61.86,0,0,0-.16-8.5c-.17-2.28-.87-4.64-3.62-4.64s-3.46,2.24-3.72,4.58a15.75,15.75,0,0,0-.14,1.81v21.67Z" transform="translate(-38.73 -39.65)"/><path class="cls-1" d="M156.14,254.2c0-11,.19-22.07,0-33.08-.12-4.81,1.32-7.23,6.4-6.56a20.54,20.54,0,0,0,2.83,0c8.6.38,18.91-2.4,23.64,7.46,5.42,11.19,4.68,23.33.18,34.87a10.7,10.7,0,0,1-11.41,6.84c-6.18-.5-7.5,2.51-7.1,7.91.36,5-.18,10.09.15,15.11.34,5.62-.78,8.73-7.57,8.73-7.22,0-7.22-4.07-7.08-9.16C156.25,275.63,156.14,264.9,156.14,254.2Z" transform="translate(-38.73 -39.65)"/><path class="cls-1" d="M355.82,254.76c0-11.31.27-22.63-.11-33.93-.22-6.16,3.13-6.18,7.66-6.36,5.2-.23,6.3,2,6.25,6.66-.19,17.9.18,35.83-.2,53.72-.15,6.22,1.8,8.73,7.89,7.73,5.79-.94,7.85,1.43,7.44,7.23-.29,4-1.59,5.59-5.62,5.41-5.63-.2-11.3-.27-16.95,0-5,.27-6.54-1.8-6.45-6.66C356,277.38,355.82,266.06,355.82,254.76Z" transform="translate(-38.73 -39.65)"/><path class="cls-1" d="M168.24,379.64c3.61-1.81,4.59-5,6.74-7.22,1.28-1.32,2.42-3.09,4.55-1.07a3,3,0,0,1,.65,4.14l0,.05q-5.62,7.53-11.55,14.84c-2.13,2.62-3.89.74-5.31-.95s-.36-3.62-.38-5.42c0-3.61,1.53-7.22-.47-10.65-2,2.25-4.21,4.44-6.12,6.8-1.43,1.81-2.73,2.46-4.63.78a2.66,2.66,0,0,1-.63-3.7,2.43,2.43,0,0,1,.33-.38c3.61-4.75,7.22-9.52,10.83-14.23.94-1.23,2-2.6,3.87-1.81a4.43,4.43,0,0,1,3,4.32C168.86,369.83,168.55,374.49,168.24,379.64Z" transform="translate(-38.73 -39.65)"/><path class="cls-1" d="M275.81,399.54c8.61.11,9.66,1.33,8.88,10.34a4.86,4.86,0,0,0,.18,2.62c2.22,3.61,3.22,7.23-.85,9.88-4.47,2.93-9.71,2.11-14.69,1.5-1.3-.16-1.81-1.72-1.81-3-.09-6-.41-12-.09-17.95C267.68,399.68,268.82,399.45,275.81,399.54Z" transform="translate(-38.73 -39.65)"/><path class="cls-1" d="M396.21,371.78a12.63,12.63,0,0,1-13.18-12,13.61,13.61,0,0,1,12.5-13c6.48-.2,13.09,5.85,13.29,12.18S402.77,371.64,396.21,371.78Z" transform="translate(-38.73 -39.65)"/><path class="cls-1" d="M365.52,385c-2.15,3.61.79,4.6,3.25,6.1,1.3.8,4.28,1,2.85,3.61a4.18,4.18,0,0,1-5,1.56c-1.48-.42-2.8-1.39-4.26-1.81-1-.36-2.06-2-3.22-.58-.3.38.37,1.66.74,2.44,1,2.13,3.45,4.35-.56,6s-3.88-2.17-5.09-3.87a90.72,90.72,0,0,1-5.79-9.66c-1.65-3-5.42-6.17.54-8.92,5-2.29,9.68-6.82,15.15-1.12A6.64,6.64,0,0,1,365.52,385Z" transform="translate(-38.73 -39.65)"/><path class="cls-1" d="M311.87,96.59c3.39-2.76,2.38-6.12,3.88-8.48.69-1.07,1.41-2.06,3-1.66a2.43,2.43,0,0,1,2,2.8c-1.28,5.81-2.6,11.62-4.35,17.29-.9,2.93-3.41,2.3-5.42.93-1.62-1.16-1.53-3.36-2.34-5-1.27-2.47-.69-7-3.33-7.22-3.21-.22-1.59,4.41-3.07,6.59-1.12,1.66-1.8,3.36-4.13,2.57-2-.67-1.72-2.21-1.28-3.81,1.42-5.13,2.8-10.28,4.22-15.41.42-1.53,1-3,3-2.92a3.93,3.93,0,0,1,3.61,2.62C309.07,88.7,310.39,92.53,311.87,96.59Z" transform="translate(-38.73 -39.65)"/><path class="cls-1" d="M333.28,407.36c0,2.45,3.15,5.81-1.35,7-3.5.94-3.61-2.63-4.6-4.76a90.54,90.54,0,0,1-4.07-10.51c-.67-2.35-3.86-5.22-.12-7.35,4.33-2.46,9-5.08,14.21-2.6a6.36,6.36,0,0,1,3.64,8.22c-.07.17-.15.35-.23.52-1.81,3.5-.47,5,2.08,6.93,1.24.94,4.11,1.81,2.61,3.9a4.17,4.17,0,0,1-5.76,1.23l-.09-.06c-1.3-.88-2.54-1.8-3.81-2.78C334.91,406.72,334,406,333.28,407.36Z" transform="translate(-38.73 -39.65)"/><path class="cls-1" d="M296.5,420.12c1.12-7.67,1.95-13.27,2.76-18.87.31-2.18.37-4.47,3.24-5.05a5.41,5.41,0,0,1,6.37,2.65c3,5.17,6.18,10.24,9.16,15.42.59,1,1.26,2.78.79,3.49a3.33,3.33,0,0,1-4.26.76c-4.93-2.75-9.26-3.62-12.64,2.27a3.23,3.23,0,0,1-4.17,1.28C295.73,421.24,296.61,419.53,296.5,420.12Z" transform="translate(-38.73 -39.65)"/><path class="cls-1" d="M220.55,409.65c1.18-4.64,2.28-8.88,3.33-13.13.43-1.8,1.37-2.78,3.27-2.53,2.54.35,2.74,2.21,2.36,4.18-.56,3.07-1.39,6.1-1.91,9.17s-.4,6,3.26,6.64c3.15.51,4.12-2.11,4.74-4.69.72-3,1.37-6.1,2.34-9,.54-1.59.94-3.94,3.61-3.05a2.94,2.94,0,0,1,2.58,3.27,3.23,3.23,0,0,1-.26.92c-1.27,4.17-1.81,8.67-3.62,12.64-2.13,4.71-6.17,6.7-11.61,5.41S221.15,414.4,220.55,409.65Z" transform="translate(-38.73 -39.65)"/><path class="cls-1" d="M157.89,123.54a11.27,11.27,0,0,1,11.66,9.86c.45,4.53-5.16,14-8.68,14.63-1.81.27-2.87-1-4-2-3.22-1.21,10.48-10.2,5.45-14.27-3.26-3.9-15.58,8.54-16.92.5C146.06,129,153.92,123.68,157.89,123.54Z" transform="translate(-38.73 -39.65)"/><path class="cls-1" d="M141.12,369.42c-3.84-1.17-5.58-4.79-8.23-7.22-2.31-2.19-.78-3.87.94-5.42,3.46-3.18,7.07-6.25,10.31-9.64,3.61-3.87,6.68-3.72,9.57.72,1.44,2.22,5.7,4,3.61,6.75-2.93,3.87-4.28-1.41-6.38-2.45-1.31-.65-2.2-.82-3.25.27a2.56,2.56,0,0,0-.34,3.36c.89,1.69,4.21,3,1.68,5.41-2,1.9-3.21-.67-4.57-1.71a2.79,2.79,0,0,0-4-.18.77.77,0,0,0-.18.18c-2.08,2-.15,3.27.86,4.71C142.48,365.77,144.26,367.45,141.12,369.42Z" transform="translate(-38.73 -39.65)"/><path class="cls-1" d="M259.52,91.18c-.45-3.09-.92-5.87-1.23-8.69-.2-2,.33-3.84,2.84-3.92,2,0,2.53,1.43,2.73,3.09a74,74,0,0,1,1.19,11.21,9.28,9.28,0,0,1-8.85,9.45c-5.33.52-9.12-2.06-10-7.71-.54-3.41-1-6.83-1.28-10.28-.18-1.8-.24-4,2.45-4.17s3,1.7,3.14,3.61a82.27,82.27,0,0,0,.82,8.44c.47,2.47,1.37,5.2,4.8,4.49C259.21,96.2,259.59,93.63,259.52,91.18Z" transform="translate(-38.73 -39.65)"/><path class="cls-1" d="M214.54,96.59A12.64,12.64,0,0,1,226.22,84.3c3.24,0,7.64,1,7.77,3.79.11,3.12-3.92,2.37-6.63,1.81A5.74,5.74,0,0,0,220.75,94c-1.24,3.05.29,5.52,2.6,7.42,2.68,2.17,5.15,1.39,7.51-.83,1.7-1.59,3.89-4.55,6-1.81,1.7,2.21-.87,4.64-2.84,6.2-3.61,2.85-7.65,4.2-12.2,1.8S214.69,100.91,214.54,96.59Z" transform="translate(-38.73 -39.65)"/><path class="cls-1" d="M207.57,106.29c2.46-.2,4.61,5.22,2,9.2-2.38,3.61-5.92,4.4-9.88,4-1.55-.17-3.25-.62-3.08-2.73a2.68,2.68,0,0,1,2.58-2.29c2.11-.35,6.08,1.8,5.42-2.33-.56-3.27-3.28-1-6.44-1.7s-6.15-.56-7.49-3.25a7.1,7.1,0,0,1,3.61-8.78c3.13-1.8,6.45-3.32,9.52-.27,4,3.31,1.1,6.68-1.22,4.61a5.66,5.66,0,0,0-4.38-.62C189.64,107.06,206.89,106,207.57,106.29Z" transform="translate(-38.73 -39.65)"/><path class="cls-1" d="M282.89,102.7c-7.86,0-8.94-1.28-8.29-9.19.16-1.81.2-3.76.29-5.64.47-10,1.46-10.83,11.07-8.09,1.42.38,3.61.2,3.17,2.42s-2.31,1.61-3.81,1.72-3.46-.52-4,1.37c-.74,2.73,1.89,2.64,3.43,3.43,2.69,1.39,4.76,2.93.11,4.39-1.67.54-4.16-.14-4,2.64.1,1.8,1.81,2.27,3.4,2.72s3.61.44,3.14,2.55C286.86,103.62,284.4,102.43,282.89,102.7Z" transform="translate(-38.73 -39.65)"/><path class="cls-1" d="M179.29,109.82l-1,1.46c-1.12,1.56-4.59,2-2.62,5s3.61-.33,5.42-.8a2.31,2.31,0,0,1,2.53.51c1.08,1.17.85,2.13-.42,3.09-1.68,1.26-4,2.4-1.8,5.11,2,2.33,3.26,0,4.73-.73s3-1.8,4.13,0-.79,2.6-1.8,3.62c-6.78,6.28-7.34,6.26-12.75-.94-1.52-2-3.13-3.94-4.57-6a8,8,0,0,1,6-12.64C178.58,107.46,179.34,108.21,179.29,109.82Z" transform="translate(-38.73 -39.65)"/><path class="cls-1" d="M201.11,410.59c-3.07-1.14-3.94-2.58-2.64-5.26,1.63-3.35,3-6.88,4.35-10.38.74-1.91,2.33-4-.49-5.7-1.44-.89-4-1.65-2-4,1.14-1.37,2.91-.52,4.36,0,2.61,1.05,5.29,2,7.8,3.26,1.8.92,5.05,1,4.8,3.61-.34,3.26-3.52,1.19-5.31,1.8-5.33,1.81-4.49,7.68-6.95,11.43C203.82,407.36,203.83,410.37,201.11,410.59Z" transform="translate(-38.73 -39.65)"/><path class="cls-1" d="M331,116c-2.37-.55-3.49-1.9-2.55-4.08,1.34-3.15,3-6.16,4.48-9.23,1.19-2.49,3.07-5-1-6.85a1.8,1.8,0,0,1-1.21-2.25,1.83,1.83,0,0,1,.45-.74,2.52,2.52,0,0,1,3.32-.65c3.38,1.62,6.72,3.3,10.06,5,1.48.72,2.8,1.72,2.17,3.61-.82,2.32-2.48.6-3.81.6-5.73,0-4.7,5.69-7.08,8.52C334.15,111.87,334.37,115.39,331,116Z" transform="translate(-38.73 -39.65)"/><path class="cls-1" d="M386.32,383.2c-.92,2.16-2.78,4.44-4.71,2.33a203.47,203.47,0,0,1-12.75-16.11c-1.3-1.81.34-2.84,1.53-3.76a2,2,0,0,1,2.81-.15,2.79,2.79,0,0,1,.35.42c4,5.17,8.07,10.31,12.08,15.5A6.93,6.93,0,0,1,386.32,383.2Z" transform="translate(-38.73 -39.65)"/><path class="cls-1" d="M333.28,407.36c-1.17-.69-1.8-2-.54-2.57s2.39,1,3.05,2.31Z" transform="translate(-38.73 -39.65)"/><path class="cls-2" d="M170.66,238.7v-8.43c0-1.8,0-4,2.64-4.15a3.9,3.9,0,0,1,4.06,3.23,37.79,37.79,0,0,1,0,19.41,3.9,3.9,0,0,1-4,3.29c-3.3-.16-2.69-2.84-2.78-4.9C170.57,244.34,170.66,241.52,170.66,238.7Z" transform="translate(-38.73 -39.65)"/><path class="cls-2" d="M280.58,416.75c-.49,2.54-2.55,2.8-4.32,2.8-2.33,0-3.2-1.81-2.87-3.87a2.71,2.71,0,0,1,3.05-2.32,3,3,0,0,1,.43.1C278.82,413.75,280.5,414.4,280.58,416.75Z" transform="translate(-38.73 -39.65)"/><path class="cls-2" d="M279.84,406.62a3.62,3.62,0,0,1-4.45,2.51l-.12,0c-2-.36-2.19-1.9-1.81-3.48.43-2,2.13-2,3.61-1.81A3.09,3.09,0,0,1,279.84,406.62Z" transform="translate(-38.73 -39.65)"/><path class="cls-2" d="M403,360.23c-1.16,3.74-3.36,6.19-7.39,5.63s-7-3.25-6.55-7.49a5.89,5.89,0,0,1,6-5.79,6.61,6.61,0,0,1,1.08.12C400.2,353.35,402.39,356.24,403,360.23Z" transform="translate(-38.73 -39.65)"/><path class="cls-2" d="M359.76,384.12a3.86,3.86,0,0,1-3.85,3.34c-1.81.16-2.71-1.54-2.8-3-.14-2.31,1.72-3.16,3.61-3.23S359.43,382.35,359.76,384.12Z" transform="translate(-38.73 -39.65)"/><path class="cls-2" d="M331.79,399.41c-2.3,0-3.11-1.7-3.29-3.61s1.48-2.6,2.91-2.85a3,3,0,0,1,3.68,2.05,3.67,3.67,0,0,1,.11.75C335.4,398,333.57,398.78,331.79,399.41Z" transform="translate(-38.73 -39.65)"/><path class="cls-2" d="M308.09,409.58c0,1.57-1.15,2-2.32,2.18-2.39.31-2.15-1.51-2-3,.11-1.1,0-2.83,1.81-2.6S307.43,408.3,308.09,409.58Z" transform="translate(-38.73 -39.65)"/><path class="cls-1" d="M157.58,140.7c2,2.33,3.27,0,4.73-.72s2.72-1.86,2.52.23c-.15,1.58,1,3.95,0,5-6.77,6.29-7.54,4.69-13-2.52-1.51-2-3.12-3.94-4.57-6-2.58-3.58-.89-7.44,2.68-10,1.24-.89,1.25-1.17,2.77-1.25s2.81-.65,2.75,1l-1.05,1.47c-1.12,1.55-4.58,2-2.61,5" transform="translate(-38.73 -39.65)"/><path class="cls-1" d="M385.31,144.66c1.24,2.15-2.72,6.42-7.43,5.8-4.29-.6-6.53-3.44-7.86-7.19-.53-1.47-.85-3.2,1.12-4a2.69,2.69,0,0,1,3.19,1.34c1.22,1.75,1,6.26,4.44,3.88,2.7-1.92-.51-3.39-1.26-6.54s-2.15-5.79-.29-8.16a7.07,7.07,0,0,1,9.47-.53c3,2,5.78,4.38,4.35,8.47-1.27,5-5.54,3.87-4.68.88a5.69,5.69,0,0,0-1.33-4.22C376.87,128.83,385.28,143.93,385.31,144.66Z" transform="translate(-38.73 -39.65)"/><path class="cls-1" d="M346.92,121.73a12.63,12.63,0,0,1,11.68-12.3c5-.52,13.91,7,12.79,13.34-8,8.44-4-1.51-8.7-6.49-3.78-2.8-8.74,0-9.56,2.81-1.25,3,.29,5.52,2.6,7.42,2.67,2.17,5.15,1.39,7.51-.83,5.45-5-3.87-14.35,3.92-5.45,1.7,2,5,.56,4.19,3a15.74,15.74,0,0,1-5,6.8c-3.61,2.85-7.66,4.2-12.21,1.8S347.06,126,346.92,121.73Z" transform="translate(-38.73 -39.65)"/><path class="cls-1" d="M240.35,253.63c0,8.31.2,16.63,0,24.92-.38,12.58-6.12,18.27-17.88,18.3-11.38,0-17.77-6.11-18.06-18.37-.39-13-.14-26.1-.16-39.09,0-3.86.24-7.72,0-11.56-.36-4.82.38-7.61,6.9-7.56s7,2.79,7,7.63q-.33,23.15,0,46.28c0,3.88-1,10.39,4,10.52,6.79.19,4.59-6.56,4.66-10.57q.39-23.56,0-47.16c-.09-5,1.5-6.68,6.9-6.65s7.22,1.7,7,6.68c-.34,8.89-.09,17.8-.09,26.7Z" transform="translate(-38.73 -39.65)"/><path class="cls-1" d="M204.54,243.6c0-5.66-.2-11.32,0-17,.38-8.56,6.12-12.44,17.88-12.46,11.37,0,17.77,4.16,18.06,12.5.39,8.88.14,17.77.16,26.61,0,2.63-.24,5.25,0,7.87.36,3.28-.38,5.18-6.9,5.14s-7-1.89-7-5.19q.33-15.75,0-31.5c0-2.64,1-7.07-4-7.16-6.79-.13-4.59,4.46-4.66,7.19q-.39,16.05,0,32.11c.09,3.37-1.5,4.54-6.9,4.52s-7.22-1.16-7-4.55c.34-6.05.09-12.11.09-18.17Z" transform="translate(-38.73 -39.65)"/><path class="cls-2" d="M410.57,235.89Q409,247,408,258.2c-.21,1.87-1.59,4.89,3.45,5.53,6.73.85,4.91-2.65,5.21-4.57" transform="translate(-38.73 -39.65)"/></svg>